<?xml version="1.0" encoding="UTF-8"?>
<svg width="24" height="24" viewBox="0 0 24 24" fill="none" xmlns="http://www.w3.org/2000/svg">
    <path d="M20.4054 3.4875C18.1607 1.2375 15.1714 0 11.9946 0C5.4375 0 0.101786 5.33571 0.101786 11.8929C0.101786 13.9821 0.654464 16.0179 1.70893 17.8125L0 24L6.32143 22.3232C8.03571 23.2875 9.99643 23.7857 11.9946 23.7857C18.5518 23.7857 23.8875 18.45 23.8875 11.8929C23.8875 8.71607 22.65 5.7375 20.4054 3.4875ZM11.9946 21.7875C10.2214 21.7875 8.48571 21.3107 6.96428 20.4107L6.60714 20.1964L2.85535 21.1821L3.85714 17.5125L3.62143 17.1375C2.63571 15.5518 2.11071 13.7464 2.11071 11.8929C2.11071 6.44464 6.54643 2.00893 12 2.00893C14.6357 2.00893 17.1214 3.04286 18.9857 4.91786C20.85 6.79286 21.8893 9.27857 21.8839 11.8929C21.8839 17.3411 17.4482 21.7875 11.9946 21.7875ZM17.4214 14.3839C17.1321 14.2393 15.6643 13.5214 15.3964 13.4196C15.1286 13.3232 14.9357 13.2696 14.7375 13.5589C14.5393 13.8482 13.9714 14.5179 13.7946 14.7161C13.6232 14.9089 13.4464 14.9357 13.1571 14.7911C11.4214 13.9232 10.2643 13.2375 9.10178 11.2607C8.775 10.6821 9.38571 10.7196 9.95357 9.58393C10.0554 9.38571 10.0018 9.21429 9.92143 9.06964C9.84107 8.925 9.24643 7.45714 9.00535 6.87321C8.77071 6.30535 8.52857 6.38571 8.34643 6.375C8.175 6.36429 7.98214 6.36429 7.78928 6.36429C7.59643 6.36429 7.275 6.44464 7.00714 6.72857C6.73928 7.0125 5.97321 7.73036 5.97321 9.19821C5.97321 10.6661 7.02857 12.0857 7.18393 12.2786C7.33928 12.4714 9.23571 15.4179 12.1607 16.7036C14.1214 17.5821 14.8821 17.6625 15.8571 17.5179C16.4357 17.4268 17.6143 16.7893 17.8554 16.1036C18.0964 15.4179 18.0964 14.8339 18.0161 14.7161C17.9411 14.5875 17.7482 14.5179 17.4214 14.3839Z" fill="white"/>
</svg> 